<svg height="512" viewBox="0 0 256 256" width="512" xmlns="http://www.w3.org/2000/svg"><path d="m189.6 95.048a2.5 2.5 0 0 1 -2.5-2.5v-38.292h-29.767a2.5 2.5 0 0 1 0-5h32.267a2.5 2.5 0 0 1 2.5 2.5v40.792a2.5 2.5 0 0 1 -2.5 2.5z" fill="#65c1d6"/><path d="m66.4 95.048a2.5 2.5 0 0 1 -2.5-2.5v-40.792a2.5 2.5 0 0 1 2.5-2.5h32.267a2.5 2.5 0 0 1 0 5h-29.767v38.292a2.5 2.5 0 0 1 -2.5 2.5z" fill="#65c1d6"/><path d="m98.667 206.744h-32.267a2.5 2.5 0 0 1 -2.5-2.5v-40.792a2.5 2.5 0 0 1 5 0v38.292h29.767a2.5 2.5 0 0 1 0 5z" fill="#65c1d6"/><path d="m189.6 206.744h-32.267a2.5 2.5 0 0 1 0-5h29.767v-38.292a2.5 2.5 0 0 1 5 0v40.792a2.5 2.5 0 0 1 -2.5 2.5z" fill="#65c1d6"/><g fill="#846f75"><path d="m224 90.048h-192a2.5 2.5 0 0 0 -2.5 2.5v70.9a2.5 2.5 0 0 0 2.5 2.5h192a2.5 2.5 0 0 0 2.5-2.5v-70.9a2.5 2.5 0 0 0 -2.5-2.5zm-2.5 70.9h-187v-65.9h187z"/><path d="m100.083 59.9 5.089 1.312-2.672 4.528a5.222 5.222 0 0 0 .808 6.343l4.365 4.365a5.22 5.22 0 0 0 6.346.807l4.525-2.671 1.312 5.092a5.225 5.225 0 0 0 5.057 3.914h6.174a5.225 5.225 0 0 0 5.057-3.917l1.312-5.089 4.528 2.673a5.224 5.224 0 0 0 6.343-.808l4.366-4.366a5.225 5.225 0 0 0 .806-6.346l-2.672-4.525 5.092-1.312a5.223 5.223 0 0 0 3.914-5.057v-6.174a5.223 5.223 0 0 0 -3.914-5.056l-5.09-1.311 2.673-4.528a5.222 5.222 0 0 0 -.808-6.343l-4.366-4.367a5.223 5.223 0 0 0 -6.345-.8l-4.525 2.671-1.312-5.092a5.225 5.225 0 0 0 -5.057-3.914h-6.174a5.224 5.224 0 0 0 -5.057 3.917l-1.312 5.089-4.527-2.673a5.222 5.222 0 0 0 -6.343.807l-4.367 4.367a5.223 5.223 0 0 0 -.806 6.344l2.671 4.527-5.091 1.312a5.223 5.223 0 0 0 -3.914 5.056v6.174a5.223 5.223 0 0 0 3.914 5.051zm1.084-11.231a.222.222 0 0 1 .164-.215l8.308-2.141a2.5 2.5 0 0 0 1.528-3.691l-4.358-7.387a.221.221 0 0 1 .034-.27l4.366-4.366a.222.222 0 0 1 .268-.036l7.388 4.361a2.5 2.5 0 0 0 3.692-1.529l2.14-8.305a.224.224 0 0 1 .216-.167h6.174a.223.223 0 0 1 .215.164l2.141 8.308a2.5 2.5 0 0 0 3.692 1.529l7.386-4.359a.225.225 0 0 1 .271.034l4.365 4.365a.223.223 0 0 1 .036.269l-4.361 7.388a2.5 2.5 0 0 0 1.529 3.692l8.306 2.141a.222.222 0 0 1 .166.215v6.174a.222.222 0 0 1 -.164.216l-8.308 2.14a2.5 2.5 0 0 0 -1.529 3.692l4.359 7.386a.222.222 0 0 1 -.034.271l-4.365 4.365a.225.225 0 0 1 -.269.037l-7.388-4.362a2.5 2.5 0 0 0 -3.692 1.53l-2.14 8.305a.224.224 0 0 1 -.216.167h-6.174a.222.222 0 0 1 -.215-.164l-2.141-8.308a2.5 2.5 0 0 0 -3.692-1.53l-7.385 4.36a.221.221 0 0 1 -.271-.035l-4.366-4.365a.223.223 0 0 1 -.036-.269l4.36-7.388a2.5 2.5 0 0 0 -1.528-3.692l-8.306-2.14a.222.222 0 0 1 -.166-.216z"/><path d="m128 63.721a11.965 11.965 0 1 0 -11.964-11.965 11.978 11.978 0 0 0 11.964 11.965zm0-18.929a6.965 6.965 0 1 1 -6.964 6.964 6.972 6.972 0 0 1 6.964-6.964z"/><path d="m155.773 178.942h-55.546a4.064 4.064 0 0 0 -4.06 4.06v42.483a4.064 4.064 0 0 0 4.06 4.06h55.546a4.064 4.064 0 0 0 4.06-4.06v-42.485a4.064 4.064 0 0 0 -4.06-4.058zm-.94 45.6h-53.666v-40.6h53.666z"/><path d="m124.224 213.319a2.5 2.5 0 0 0 3.269-1.348l5.631-13.534a2.5 2.5 0 0 0 -4.617-1.921l-5.631 13.534a2.5 2.5 0 0 0 1.348 3.269z"/><path d="m137.449 212.733a2.5 2.5 0 0 0 3.535 0l6.722-6.722a2.5 2.5 0 0 0 0-3.535l-6.722-6.722a2.5 2.5 0 1 0 -3.535 3.536l4.954 4.954-4.954 4.954a2.5 2.5 0 0 0 0 3.535z"/><path d="m115.016 212.733a2.5 2.5 0 1 0 3.535-3.535l-4.954-4.954 4.954-4.954a2.5 2.5 0 0 0 -3.535-3.536l-6.722 6.722a2.5 2.5 0 0 0 0 3.535z"/></g><path d="m130.308 140.254a10.512 10.512 0 0 0 4.733 3.761 16.545 16.545 0 0 0 6.559 1.285 13.816 13.816 0 0 0 8.532-2.485 8.293 8.293 0 0 0 3.454-6.932 8.675 8.675 0 0 0 -1.29-4.736 10.4 10.4 0 0 0 -3.7-3.368 29.6 29.6 0 0 0 -6.655-2.5 16.584 16.584 0 0 1 -5.647-2.421 3.463 3.463 0 0 1 -1.416-2.875 3.735 3.735 0 0 1 1.608-3.146 8.055 8.055 0 0 1 4.926-1.34 7.207 7.207 0 0 1 5.013 1.619 5.277 5.277 0 0 1 1.754 4.187 1.283 1.283 0 0 0 1.282 1.281h2.656a1.283 1.283 0 0 0 1.281-1.281 10.077 10.077 0 0 0 -1.547-5.459 10.394 10.394 0 0 0 -4.322-3.807 13.806 13.806 0 0 0 -6.129-1.337 13.387 13.387 0 0 0 -8.3 2.5 8.473 8.473 0 0 0 .251 13.822 24.235 24.235 0 0 0 7.469 3.162c3.786 1.063 5.454 2.012 6.186 2.622a4.077 4.077 0 0 1 -.32 6.337 8.528 8.528 0 0 1 -5.092 1.361 9.231 9.231 0 0 1 -5.768-1.638 4.9 4.9 0 0 1 -1.963-4.189 1.283 1.283 0 0 0 -1.281-1.281h-2.636a1.283 1.283 0 0 0 -1.281 1.281 9.808 9.808 0 0 0 1.643 5.577z" fill="#65c1d6"/><path d="m122.542 111.131h-2.655a1.284 1.284 0 0 0 -1.282 1.282v22.032a6.315 6.315 0 0 1 -1.564 4.491 5.117 5.117 0 0 1 -3.92 1.571 5.692 5.692 0 0 1 -4.121-1.345 5.558 5.558 0 0 1 -1.385-4.162 1.283 1.283 0 0 0 -1.282-1.281h-2.633a1.283 1.283 0 0 0 -1.281 1.281 10.106 10.106 0 0 0 2.828 7.556c1.867 1.818 4.517 2.739 7.874 2.739a10.394 10.394 0 0 0 7.781-3.022 10.982 10.982 0 0 0 2.921-7.958v-21.9a1.283 1.283 0 0 0 -1.281-1.284z" fill="#65c1d6"/></svg>